<svg width="1200" height="1200" viewBox="0 0 1200 1200" fill="none" xmlns="http://www.w3.org/2000/svg">
<path d="M1015.6 975.84C1086.04 895.199 1038.16 810 1016.32 778.56C982.483 719.04 931.362 653.64 928.483 649.8C926.682 647.761 924.041 646.679 921.881 647.398C920.92 647.398 920.322 647.878 919.842 647.878L919.483 648.48L920.561 675.96C922.842 675.358 924.4 673.44 925.002 671.639L925.963 668.397C950.201 701.038 1024 801.597 1031.08 848.997L1033.6 848.278C1028.68 865.079 1003.36 850.318 1003.36 850.318L875.924 772.798L942.643 752.876L934.604 726.716L870.163 745.915L886.604 651.114C895.245 658.074 901.487 663.958 906.764 668.395L904.968 639.598L886.968 647.758C886.604 644.035 885.046 640.195 882.046 637.676C881.085 637.074 880.487 636.355 879.764 636.355L908.084 623.515C908.565 623.035 908.924 623.035 909.163 623.035C905.084 605.156 891.284 593.035 885.042 588.355L875.44 634.554C873.28 634.554 870.881 634.554 868.959 635.156L731.439 677.394L817.119 592.316C819.643 589.675 820.842 586.554 820.842 582.597L878.322 576.116H878.56C871.6 551.995 848.681 532.675 835.119 523.073L812.318 569.753C810.037 568.554 807.639 568.554 804.877 568.554L797.318 569.753L821.556 520.433C799.115 528.113 780.517 536.753 768.755 542.992C778.115 552.231 787.716 561.472 796.954 569.871L648.044 592.316L715.485 485.876C716.442 483.958 717.282 481.798 717.282 479.517C733.962 468.595 755.321 457.677 781.36 453.357C765.044 422.517 741.165 407.998 729.282 402.599L701.204 464.759C700.603 464.759 699.525 464.759 698.923 465.36L522.523 526.919L594.882 457.798L575.683 437.759L481.484 527.517C443.441 515.396 411.043 511.919 388.601 510.958L378.402 496.196C384.762 497.638 391.242 499.439 398.562 499.919C446.921 506.04 499.362 484.919 553.842 437.157C554.444 436.919 554.803 436.438 555.041 435.958C555.041 435.837 576.162 407.157 608.201 406.196C621.642 405.715 635.08 410.036 648.881 419.036C666.643 406.798 690.881 394.438 720.041 390.837C706.721 346.798 672.4 325.677 672.4 325.677C619.841 320.638 585.642 381.118 575.08 401.876C565.479 407.036 557.799 413.517 552.639 418.798L552.643 418.075C482.803 449.997 420.043 453.837 370.723 429.118C341.325 414.356 324.645 393.598 318.883 385.556C326.325 363.837 334.723 334.677 341.805 298.318C358.727 212.998 312.766 204.24 312.766 204.24L275.442 203.639C222.524 215.877 256.602 282.6 268.723 324.479C271.962 335.038 273.645 343.319 274.122 349.92C267.645 360.838 249.165 389.518 233.204 392.998C213.044 397.439 201.884 442.197 201.884 442.197C200.923 444.357 199.724 446.517 198.646 448.556L195.044 446.517C194.204 447.716 176.325 477.716 162.646 517.677C144.044 571.798 142.603 616.556 158.205 649.197C174.045 683.158 207.283 703.556 256.725 710.756C318.166 719.518 366.285 724.076 404.925 728.037C488.804 736.318 535.245 740.877 602.565 774.838C701.206 824.158 993.764 994.558 996.284 996.478L1003.36 984.958C1000.97 983.517 766.603 847.198 646.123 782.518L656.682 773.518L1015.6 975.84ZM855.52 668.4L840.879 751.681L780.52 715.201L725.801 722.763C722.918 719.041 720.52 715.201 717.278 710.763L855.52 668.4ZM670.48 504.84L611.558 598.078C586.597 578.16 561.878 562.68 538.48 551.039L670.48 504.84ZM342.88 654.96C342.04 655.558 341.079 655.558 340.239 655.558C337.958 655.558 335.798 654.237 334.72 651.839L323.681 628.558C322.24 625.558 323.439 621.718 326.56 620.398C329.681 619.077 333.279 620.398 334.72 623.398L345.759 646.558C347.322 649.8 345.88 653.64 342.88 654.96L342.88 654.96ZM597.52 739.558C580.84 729.12 555.161 721.679 526.118 715.199L482.2 649.801C534.04 671.039 597.52 739.559 597.52 739.559V739.558ZM364 440.998C387.398 452.877 413.68 458.877 442.121 458.877H442.723C468.645 458.639 496.121 453.479 525.043 443.639C480.762 476.877 439.242 491.639 400.123 486.717C387.041 485.279 375.162 481.44 365.201 476.998L315.521 403.076C325.001 414.119 340.599 428.998 364.001 440.998L364 440.998ZM281.078 223.438C306.879 232.918 289.359 311.637 289.359 311.637C264.64 255.715 281.078 223.438 281.078 223.438ZM265.238 489.118C268.238 487.438 271.957 488.638 273.398 491.637L321.277 592.197C322.719 595.319 321.515 598.557 318.398 600.358C317.68 600.358 316.598 601.076 315.879 601.076C313.48 601.076 311.32 599.756 310.238 597.358L262.359 497.158C260.801 494.279 262.238 490.318 265.238 489.119L265.238 489.118ZM286.238 619.078C202 648.48 228.039 508.918 229.718 500.638L286.238 619.078ZM639.398 621.719L767.078 602.52L691.598 677.399C674.321 656.282 657.039 637.68 639.399 621.719H639.398Z" fill="#80ACED"/>
<path d="M751.08 525.6L779.279 467.401C755.517 472.081 735.119 483.362 720.478 493.921C730.322 504.601 740.4 515.038 751.08 525.601V525.6Z" fill="#80ACED"/>
<path d="M870.84 590.4L824.52 596.041C838.2 608.162 851.04 619.682 862.559 630.002L870.84 590.4Z" fill="#80ACED"/>
<path d="M682.56 450.72C684.599 452.88 686.162 455.161 687.958 457.079L712.798 405.477C692.4 409.68 674.282 418.559 660.122 427.68C667.802 434.04 675.239 441.84 682.56 450.719L682.56 450.72Z" fill="#80ACED"/>
<path d="M822.12 506.04C817.077 489.122 802.921 475.56 793.679 468.602L763.441 530.762C776.761 523.801 796.921 514.321 822.121 506.039L822.12 506.04Z" fill="#80ACED"/>
</svg>
